<svg width="42" height="42" viewBox="0 0 42 42" fill="none" xmlns="http://www.w3.org/2000/svg">
<rect width="42" height="42" rx="21" fill="#DEE8FF"/>
<path d="M21 15.2C18.9565 15.2 17.3 16.8565 17.3 18.9V20.3C17.3 20.797 17.7029 21.2 18.2 21.2C18.6971 21.2 19.1 20.797 19.1 20.3V18.9C19.1 17.8506 19.9507 17 21 17C21.4971 17 21.9 16.597 21.9 16.1C21.9 15.6029 21.4971 15.2 21 15.2Z" fill="#2E6FF2"/>
<path fill-rule="evenodd" clip-rule="evenodd" d="M13.8 18.9C13.8 14.9235 17.0236 11.7 21 11.7C24.9765 11.7 28.2 14.9235 28.2 18.9V24.5249C29.4292 25.005 30.3 26.2008 30.3 27.5999V29.4C30.3 29.897 29.8971 30.2999 29.4 30.2999H12.6C12.103 30.2999 11.7 29.897 11.7 29.4V27.5999C11.7 26.2008 12.5708 25.005 13.8 24.5249V18.9ZM13.5 27.5999C13.5 26.7715 14.1716 26.1 15 26.1H27C27.8284 26.1 28.5 26.7715 28.5 27.5999V28.5H13.5V27.5999ZM26.4 18.9V24.3H15.6V18.9C15.6 15.9176 18.0177 13.5 21 13.5C23.9823 13.5 26.4 15.9176 26.4 18.9Z" fill="#2E6FF2"/>
</svg>
