<svg width="28" height="28" viewBox="0 0 28 28" fill="none" xmlns="http://www.w3.org/2000/svg">
<path fill-rule="evenodd" clip-rule="evenodd" d="M4.78338 2.80005C3.55502 2.80005 2.80005 3.8933 2.80005 4.92338V17.4767C2.80005 18.5068 3.55502 19.6001 4.78338 19.6001H8.05005V17.5001H4.9014C4.90056 17.4931 4.90005 17.4853 4.90005 17.4767V4.92338C4.90005 4.91478 4.90056 4.90701 4.9014 4.90005H16.7987C16.7995 4.90701 16.8 4.91478 16.8 4.92338V7.35005H18.9V4.92338C18.9 3.8933 18.1451 2.80005 16.9167 2.80005H4.78338ZM11.7834 9.10005C10.6403 9.10005 9.80005 10.0578 9.80005 11.13V23.87C9.80005 24.9423 10.6403 25.9 11.7834 25.9H23.9167C25.0598 25.9 25.9 24.9423 25.9 23.87V11.13C25.9 10.0578 25.0598 9.10005 23.9167 9.10005H11.7834ZM11.9 23.8V11.2H23.8V23.8H11.9ZM21.7 15.05C21.7 15.6299 21.2299 16.1 20.6501 16.1H15.05C14.4701 16.1 14 15.6299 14 15.05C14 14.4701 14.4701 14 15.05 14H20.6501C21.2299 14 21.7 14.4701 21.7 15.05ZM20.6501 21C21.2299 21 21.7 20.5299 21.7 19.95C21.7 19.3701 21.2299 18.9 20.6501 18.9H15.05C14.4701 18.9 14 19.3701 14 19.95C14 20.5299 14.4701 21 15.05 21H20.6501Z" fill="#8D9299"/>
</svg>
