<svg width="12" height="12" viewBox="0 0 12 12" fill="none" xmlns="http://www.w3.org/2000/svg">
<path d="M3.31819 2.68179C3.14245 2.50605 2.85753 2.50605 2.68179 2.68179C2.50605 2.85753 2.50605 3.14245 2.68179 3.31819L5.36359 5.99999L2.68179 8.68179C2.50605 8.85753 2.50605 9.14245 2.68179 9.31819C2.85753 9.49392 3.14245 9.49392 3.31819 9.31819L5.99999 6.63638L8.62149 9.25788C8.79722 9.43362 9.08215 9.43362 9.25788 9.25788C9.43362 9.08215 9.43362 8.79722 9.25788 8.62149L6.63638 5.99999L9.25788 3.37849C9.43362 3.20275 9.43362 2.91783 9.25788 2.74209C9.08215 2.56636 8.79722 2.56636 8.62149 2.74209L5.99999 5.36359L3.31819 2.68179Z" fill="black"/>
</svg>
